<?xml version="1.0" encoding="UTF-8" standalone="no"?>
<svg
   version="1.1"
   id="Layer_1"
   x="0px"
   y="0px"
   width="100%"
   viewBox="0 0 512 512"
   enable-background="new 0 0 512 512"
   xml:space="preserve"
   sodipodi:docname="logo.svg"
   inkscape:version="1.3.2 (091e20ef0f, 2023-11-25)"
   xmlns:inkscape="http://www.inkscape.org/namespaces/inkscape"
   xmlns:sodipodi="http://sodipodi.sourceforge.net/DTD/sodipodi-0.dtd"
   xmlns="http://www.w3.org/2000/svg"
   xmlns:svg="http://www.w3.org/2000/svg"><defs
   id="defs7" /><sodipodi:namedview
   id="namedview7"
   pagecolor="#505050"
   bordercolor="#eeeeee"
   borderopacity="1"
   inkscape:showpageshadow="0"
   inkscape:pageopacity="0"
   inkscape:pagecheckerboard="0"
   inkscape:deskcolor="#505050"
   inkscape:zoom="1.6777344"
   inkscape:cx="199.97206"
   inkscape:cy="260.76834"
   inkscape:window-width="1878"
   inkscape:window-height="982"
   inkscape:window-x="0"
   inkscape:window-y="0"
   inkscape:window-maximized="1"
   inkscape:current-layer="Layer_1" />

<path
   fill="#FF3E00"
   opacity="1.000000"
   stroke="none"
   d=" M147.000046,471.000000   C135.506348,470.706757 124.464058,471.947479 113.680748,468.099396   C98.750923,462.771667 86.003487,446.192444 86.002724,429.785950   C85.997437,314.967285 85.965446,200.148575 86.031967,85.329926   C86.043808,64.891045 102.618835,45.995583 122.159943,44.005051   C126.575272,43.555290 131.013016,43.048035 135.441025,43.042522   C188.600830,42.976345 241.760788,43.025879 294.920502,42.935516   C298.145721,42.930035 300.420929,43.810379 302.728241,46.126091   C343.424591,86.970596 384.238556,127.697960 424.888916,168.588013   C426.608765,170.317963 427.868805,173.373840 427.873169,175.814667   C428.025055,260.636902 428.219269,345.460419 427.839966,430.281250   C427.749359,450.551910 411.140106,467.712280 392.249054,469.951935   C386.529358,470.630035 380.734070,470.952179 374.972992,470.957062   C299.148712,471.021545 223.324356,471.000000 147.000046,471.000000  M129.000000,155.500000   C129.000000,245.918045 129.000000,336.336090 129.000000,426.760925   C214.648376,426.760925 299.582458,426.760925 384.702332,426.760925   C384.702332,348.803253 384.702332,271.084625 384.702332,192.826080   C349.018890,192.826080 313.629486,192.826080 277.883728,192.826080   C277.883728,157.351242 277.883728,122.414963 277.883728,87.299126   C228.134232,87.299126 178.748581,87.299126 129.000000,87.299126   C129.000000,109.897560 129.000000,132.198776 129.000000,155.500000  z"
   id="path2" />

<path
   fill="#FF3E00"
   opacity="1.000000"
   stroke="none"
   d=" M218.041229,219.884094   C229.368408,226.924164 240.746735,233.883499 252.011124,241.022629   C270.185883,252.541428 288.309113,264.142151 306.404907,275.784729   C313.194336,280.152954 313.232788,289.838104 306.480530,294.168579   C277.528107,312.736847 248.578674,331.311066 219.473145,349.636932   C217.218536,351.056519 213.764954,350.571869 210.392853,350.552979   C207.944717,347.089172 205.972351,344.044586 204.000000,340.531342   C204.000000,303.375122 204.000000,266.687561 204.198334,229.720245   C206.246262,225.201553 208.500519,221.470245 213.799347,221.006180   C215.235046,220.880432 216.628418,220.271347 218.041229,219.884094  z"
   id="path4" />
<path
   fill="#FF3F00"
   opacity="1.000000"
   stroke="none"
   d=" M204.000000,230.000000   C204.000000,266.687561 204.000000,303.375122 203.813675,340.704926   C203.403076,341.601807 203.178818,341.856445 202.954559,342.111115   C202.636551,340.915741 202.042297,339.720764 202.040680,338.524963   C201.992661,302.804413 202.002075,267.083801 202.014023,231.363205   C202.014236,230.705902 202.154648,230.048630 202.752899,229.338043   C203.517441,229.523148 203.758713,229.761581 204.000000,230.000000  z"
   id="path5" />
<path
   fill="#FF3E00"
   opacity="1.000000"
   stroke="none"
   d=" M204.198334,229.720245   C203.758713,229.761581 203.517441,229.523148 203.113434,229.088974   C203.512177,221.160492 207.426636,218.564423 217.806076,219.540604   C216.628418,220.271347 215.235046,220.880432 213.799347,221.006180   C208.500519,221.470245 206.246262,225.201553 204.198334,229.720245  z"
   id="path6" />
<path
   fill="#FF3E00"
   opacity="1.000000"
   stroke="none"
   d=" M202.974518,342.480286   C203.178818,341.856445 203.403076,341.601807 203.813660,341.173584   C205.972351,344.044586 207.944717,347.089172 209.958893,350.483551   C206.138031,349.512329 203.625931,347.006073 202.974518,342.480286  z"
   id="path7" />
</svg>
