<?xml version="1.0" encoding="UTF-8" standalone="no"?>
<svg
   version="1.1"
   id="Layer_1"
   x="0px"
   y="0px"
   width="100%"
   viewBox="0 0 1100 512"
   enable-background="new 0 0 1100 512"
   xml:space="preserve"
   sodipodi:docname="Fileplay.svg"
   inkscape:version="1.3.2 (091e20ef0f, 2023-11-25)"
   xmlns:inkscape="http://www.inkscape.org/namespaces/inkscape"
   xmlns:sodipodi="http://sodipodi.sourceforge.net/DTD/sodipodi-0.dtd"
   xmlns="http://www.w3.org/2000/svg"
   xmlns:svg="http://www.w3.org/2000/svg"><defs
   id="defs16" /><sodipodi:namedview
   id="namedview16"
   pagecolor="#505050"
   bordercolor="#eeeeee"
   borderopacity="1"
   inkscape:showpageshadow="0"
   inkscape:pageopacity="0"
   inkscape:pagecheckerboard="0"
   inkscape:deskcolor="#505050"
   inkscape:zoom="0.78090909"
   inkscape:cx="550"
   inkscape:cy="255.47148"
   inkscape:window-width="1920"
   inkscape:window-height="1080"
   inkscape:window-x="0"
   inkscape:window-y="0"
   inkscape:window-maximized="1"
   inkscape:current-layer="Layer_1" />

<path
   fill="#FF3E00"
   opacity="1.000000"
   stroke="none"
   d=" M156.000000,471.000000   C137.169006,471.000000 118.836830,471.131104 100.507347,470.964386   C80.828835,470.785431 64.727760,459.156036 58.844898,440.337097   C57.789036,436.959473 57.077423,433.313477 57.074646,429.790710   C56.984108,314.972107 56.965591,200.153427 57.031822,85.334801   C57.043617,64.882858 73.624680,45.998196 93.155067,44.005241   C97.570297,43.554695 102.008125,43.048042 106.436142,43.042526   C159.595932,42.976337 212.755890,43.025726 265.915588,42.935829   C269.139008,42.930378 271.416199,43.805462 273.724854,46.122536   C314.420929,86.967270 355.235046,127.694481 395.885620,168.584290   C397.605835,170.314575 398.868713,173.369339 398.873077,175.809738   C399.025116,260.631958 399.218964,345.455475 398.840240,430.276276   C398.749695,450.557068 382.135651,467.710205 363.254059,469.951721   C357.534485,470.630707 351.739136,470.950409 345.977966,470.956696   C282.818726,471.025696 219.659348,471.000000 156.000000,471.000000  M100.000000,278.500000   C100.000000,327.919128 100.000000,377.338226 100.000000,426.760132   C185.650070,426.760132 270.584106,426.760132 355.701538,426.760132   C355.701538,348.801605 355.701538,271.083008 355.701538,192.824493   C320.017303,192.824493 284.627838,192.824493 248.882172,192.824493   C248.882172,157.349655 248.882172,122.413376 248.882172,87.299896   C199.132660,87.299896 149.747025,87.299896 100.000000,87.299896   C100.000000,150.899414 100.000000,214.199707 100.000000,278.500000  z"
   id="path2" />
<path
   fill="#FF3E00"
   opacity="1.000000"
   stroke="none"
   d=" M763.000000,298.000000   C763.000000,282.867798 763.000000,268.235596 763.000000,253.302917   C767.413696,253.302917 771.479919,253.302917 775.659485,253.302917   C776.299072,257.031342 776.922302,260.664368 777.697205,265.181671   C783.283081,258.281219 789.654053,253.993546 797.800720,252.615356   C816.797852,249.401550 833.199524,256.167786 839.860474,275.464264   C845.627014,292.170105 844.980591,309.170471 838.620605,325.717010   C834.079773,337.531097 821.214966,345.711487 808.632751,346.079956   C796.899109,346.423584 786.565125,343.769653 778.500122,333.886444   C778.500122,351.176788 778.500122,367.676575 778.500122,384.588623   C773.819641,384.588623 768.762878,384.588623 763.000000,384.588623   C763.000000,355.996674 763.000000,327.248352 763.000000,298.000000  M800.771545,332.998413   C816.098572,333.604279 821.291992,326.112976 824.645020,316.191071   C828.759583,304.015442 828.450012,291.257080 823.849670,279.080780   C821.551941,272.999054 817.401001,268.191040 810.641357,266.256134   C796.670837,262.257080 780.921692,268.797760 779.958862,284.917908   C779.566223,291.491272 779.008545,298.075714 779.065063,304.650513   C779.176147,317.574646 783.387634,331.020630 800.771545,332.998413  z"
   id="path3" />
<path
   fill="#FF3E00"
   opacity="1.000000"
   stroke="none"
   d=" M1011.301758,310.706848   C1003.587219,291.529846 996.098389,272.677246 988.285400,253.008453   C993.809326,253.008453 998.427734,252.762878 1002.989685,253.162003   C1004.313049,253.277786 1006.100586,255.006607 1006.617065,256.390869   C1014.570129,277.707642 1022.356873,299.086609 1030.153442,320.461639   C1030.927002,322.582489 1031.512573,324.772064 1032.216919,327.031189   C1040.922607,302.317383 1049.588379,277.716949 1058.241699,253.151917   C1063.909180,253.151917 1069.214722,253.151917 1075.346680,253.151917   C1073.640869,258.023163 1072.157593,262.558197 1070.473755,267.017426   C1061.342285,291.198273 1052.396362,315.453369 1042.893921,339.488098   C1038.423584,350.794861 1033.375732,361.947693 1027.629150,372.654694   C1021.813599,383.489899 1006.731873,386.378052 997.031616,384.542999   C996.074829,384.362000 995.099060,383.959991 994.164734,384.040314   C990.757812,384.333099 989.768066,382.654816 989.966125,379.542969   C990.133606,376.910919 990.000549,374.259766 990.000549,371.077515   C991.903687,371.077515 993.598022,370.716492 995.071167,371.134644   C1006.702698,374.436249 1015.726685,367.353729 1019.875549,357.330902   C1019.937073,357.182343 1019.889404,356.975555 1019.974121,356.851532   C1027.609375,345.667999 1021.456482,335.720428 1017.227844,325.569122   C1015.226746,320.765259 1013.421509,315.879761 1011.301758,310.706848  z"
   id="path4" />
<path
   fill="#FF3E00"
   opacity="1.000000"
   stroke="none"
   d=" M665.643311,319.209106   C661.905334,304.402405 661.461060,290.084930 666.918152,275.860291   C671.873718,262.943054 684.826721,252.526215 699.897400,251.911621   C712.220276,251.409088 723.479919,253.695190 731.136047,263.949158   C735.013062,269.141632 737.907898,275.500183 739.591187,281.775604   C741.261536,288.002808 740.853210,294.787598 741.400085,301.894104   C720.280823,301.894104 699.887878,301.894104 679.561340,301.894104   C677.813782,316.944244 689.344910,331.333618 702.642517,332.283966   C714.642395,333.141571 725.437622,330.324402 736.976562,325.878693   C736.976562,330.260498 737.320068,334.359802 736.786865,338.341705   C736.604675,339.701874 734.406189,341.361969 732.810120,341.856873   C727.861450,343.391418 722.822388,344.996399 717.706238,345.564880   C697.038208,347.861328 676.659119,344.474060 666.447510,321.928040   C666.116150,321.196350 666.071594,320.334808 665.643311,319.209106  M718.006287,270.517456   C700.516357,257.777893 683.691589,266.158173 679.478394,289.706879   C694.226013,289.706879 708.973633,289.706879 723.895813,289.706879   C724.362427,282.623291 722.290771,276.600189 718.006287,270.517456  z"
   id="path5" />
<path
   fill="#FF3E00"
   opacity="1.000000"
   stroke="none"
   d=" M976.000000,290.003754   C976.000000,308.127197 976.000000,325.751526 976.000000,343.686890   C972.091736,343.686890 968.496704,343.686890 964.472534,343.686890   C963.562866,340.166016 962.579468,336.359711 961.570190,332.453491   C957.787842,335.712952 954.410095,339.473541 950.281860,342.014862   C939.771301,348.485229 914.657227,348.572937 906.498962,335.125397   C897.329529,320.011047 902.376404,299.925629 920.288452,294.212128   C927.952820,291.767426 936.235901,291.153870 944.286255,290.066437   C949.638794,289.343445 955.076904,289.254456 960.422913,288.885406   C961.682007,278.252197 959.211792,270.024933 952.263184,266.880280   C945.537354,263.836395 938.466797,264.398834 931.607483,266.282898   C926.774780,267.610260 922.167236,269.757172 916.889282,271.753723   C915.383179,268.176849 913.774536,264.356293 912.074280,260.318237   C920.178955,254.900452 929.190430,252.800476 938.458008,252.105972   C946.475830,251.505112 954.488586,251.824768 962.074463,255.472961   C971.433044,259.973694 975.107605,267.865356 975.942749,277.519714   C976.285889,281.486664 975.999817,285.508026 976.000000,290.003754  M940.886414,332.955505   C958.916260,327.388824 961.139954,317.466797 960.386597,301.132568   C949.861023,300.707001 939.341675,300.545471 929.200806,304.072632   C924.176819,305.820099 920.087463,309.342896 919.221497,314.534180   C918.288513,320.127045 917.880981,326.236908 923.753784,330.256500   C928.787476,333.701813 934.443604,332.952057 940.886414,332.955505  z"
   id="path6" />
<path
   fill="#FF3E00"
   opacity="1.000000"
   stroke="none"
   d=" M513.083252,295.304016   C513.023132,311.598206 513.023132,327.416992 513.023132,343.617554   C507.765839,343.617554 502.709412,343.617554 497.323669,343.617554   C497.323669,303.978180 497.323669,264.267242 497.323669,224.277740   C519.666504,224.277740 541.930115,224.277740 564.597290,224.277740   C564.597290,228.527420 564.597290,232.917526 564.597290,237.847900   C547.685974,237.847900 530.629272,237.847900 513.289795,237.847900   C513.289795,251.763779 513.289795,265.147034 513.289795,278.894836   C529.419983,278.894836 545.354126,278.894836 561.642334,278.894836   C561.642334,283.968872 561.642334,288.688232 561.642334,294.000244   C550.882874,294.000244 540.112244,293.911957 529.344116,294.037415   C523.941528,294.100372 518.543518,294.552521 513.083252,295.304016  z"
   id="path7" />
<path
   fill="#FF3E00"
   opacity="1.000000"
   stroke="none"
   d=" M866.000000,248.000000   C866.000000,237.202332 866.000000,226.904678 866.000000,216.305450   C871.397827,216.305450 876.448181,216.305450 881.751221,216.305450   C881.751221,258.710663 881.751221,300.960876 881.751221,343.605774   C876.793701,343.605774 871.737366,343.605774 866.000000,343.605774   C866.000000,311.980072 866.000000,280.240051 866.000000,248.000000  z"
   id="path8" />
<path
   fill="#FF3E00"
   opacity="1.000000"
   stroke="none"
   d=" M628.202454,216.002289   C632.636108,216.000656 636.589417,216.000656 640.764038,216.000656   C640.764038,258.740753 640.764038,300.995026 640.764038,343.624878   C635.750061,343.624878 630.697510,343.624878 625.304199,343.624878   C625.207275,342.432098 625.014038,341.159363 625.013489,339.886536   C624.997498,300.072449 624.988586,260.258392 625.036804,220.444351   C625.039062,218.584015 623.893616,215.693466 628.202454,216.002289  z"
   id="path9" />
<path
   fill="#FF3E00"
   opacity="1.000000"
   stroke="none"
   d=" M582.000000,330.988586   C582.000000,304.867584 582.000000,279.244965 582.000000,253.012436   C586.584656,253.012436 590.886230,252.726318 595.100586,253.206100   C596.205627,253.331924 597.868713,255.828964 597.876770,257.245026   C598.039978,285.890381 597.998962,314.536957 597.998962,343.591522   C592.822388,343.591522 587.765869,343.591522 582.000000,343.591522   C582.000000,339.668243 582.000000,335.577606 582.000000,330.988586  z"
   id="path10" />
<path
   fill="#FF3D00"
   opacity="1.000000"
   stroke="none"
   d=" M582.646729,236.154739   C582.183350,231.813995 581.023499,227.444412 582.154541,223.782440   C583.286560,220.117676 587.631653,219.653183 591.476990,219.983810   C596.421631,220.408936 599.012024,223.626892 598.999756,229.536514   C598.987488,235.453979 596.413452,238.752869 591.411194,238.966476   C588.352295,239.097092 585.034058,239.732620 582.646729,236.154739  z"
   id="path11" />




<path
   fill="#FF3E00"
   opacity="1.000000"
   stroke="none"
   d=" M172.999756,249.000427   C173.330368,241.420212 173.111588,234.259201 174.136307,227.280777   C175.310120,219.286835 184.035126,216.075974 190.992249,220.527008   C205.264694,229.658310 219.513077,238.827286 233.788834,247.953384   C248.336182,257.253113 262.933044,266.475647 277.451385,275.820312   C284.524872,280.373108 284.513885,289.649353 277.407562,294.209045   C248.478012,312.771240 219.543365,331.326263 190.517517,349.737183   C182.254333,354.978516 173.033859,348.683807 173.016037,337.941528   C172.968491,309.293945 172.999802,280.646240 172.999756,251.998566   C172.999756,251.165802 172.999756,250.333038 172.999756,249.000427  z"
   id="path16" />
</svg>
